<mxfile host="app.diagrams.net" modified="2024-04-20T01:27:14.606Z" agent="Mozilla/5.0 (Macintosh; Intel Mac OS X 10_15_7) AppleWebKit/537.36 (KHTML, like Gecko) Chrome/123.0.0.0 Safari/537.36" version="24.2.5" etag="ZpkGsyeDhR7hx8ioKRjI" type="github">
  <diagram name="第 1 页" id="RC2XgFQH1H1f3rkSkFK5">
    <mxGraphModel>
      <root>
        <mxCell id="0" />
        <mxCell id="1" parent="0" />
      </root>
    </mxGraphModel>
  </diagram>
</mxfile>
